# xmcd
#
# Track frame offsets:
#	150
#	12061
#	27197
#	44056
#	61192
#	76478
#	91287
#	107759
#	123857
#	135922
#	151517
#	164880
#	181102
#
# Disc length: 2596 seconds
#
# Revision: 1
# Processed by: cddbd v1.5.1PL0 Copyright (c) Steve Scherf et al.
# Submitted via: EasyCDDAExtractor 7.1.0.1
#
DISCID=960a220d
DTITLE=The Woodys - Telluride To Tennessee
DYEAR=2004
DGENRE=Country
TTITLE0=Greener Pastures
TTITLE1=My Train Of Thought
TTITLE2=Hillbilly At Heart
TTITLE3=Sin City
TTITLE4=Kick Up The Dust
TTITLE5=Telluride To Tennessee
TTITLE6=Long Time Gone
TTITLE7=Fork In The Road
TTITLE8=He's Back And I'm Blue(grass)
TTITLE9=I Couldn't Love You Anymore
TTITLE10=Lonesome City, Pop 1
TTITLE11=Bop Shebang
TTITLE12=That's The Way Love Goes
EXTD=
EXTT0=
EXTT1=
EXTT2=
EXTT3=
EXTT4=
EXTT5=
EXTT6=
EXTT7=
EXTT8=
EXTT9=
EXTT10=
EXTT11=
EXTT12=
PLAYORDER=
